<mxfile host="app.diagrams.net" modified="2023-05-13T10:01:40.920Z" agent="Mozilla/5.0 (Windows NT 10.0; Win64; x64) AppleWebKit/537.36 (KHTML, like Gecko) Chrome/113.0.0.0 Safari/537.36 Edg/113.0.1774.35" etag="lU69my5Gtok0OknVILzB" version="21.3.0" type="device">
  <diagram name="Page-1" id="1UZf7zAo4mhxwUAFlR0k">
    <mxGraphModel dx="2074" dy="1634" grid="1" gridSize="10" guides="1" tooltips="1" connect="1" arrows="1" fold="1" page="0" pageScale="1" pageWidth="1100" pageHeight="850" math="0" shadow="0">
      <root>
        <mxCell id="0" />
        <mxCell id="1" parent="0" />
        <mxCell id="WMnbsK8Wtpcpn8V5cacr-1" value="CUSTOMER" style="rounded=0;whiteSpace=wrap;html=1;" parent="1" vertex="1">
          <mxGeometry x="890" y="-330" width="120" height="60" as="geometry" />
        </mxCell>
        <mxCell id="WMnbsK8Wtpcpn8V5cacr-2" value="AIRCRAFT" style="rounded=0;whiteSpace=wrap;html=1;" parent="1" vertex="1">
          <mxGeometry x="50" y="-330" width="120" height="60" as="geometry" />
        </mxCell>
        <mxCell id="WMnbsK8Wtpcpn8V5cacr-3" value="CHAPTER" style="rounded=0;whiteSpace=wrap;html=1;" parent="1" vertex="1">
          <mxGeometry x="470" y="-330" width="120" height="60" as="geometry" />
        </mxCell>
        <mxCell id="WMnbsK8Wtpcpn8V5cacr-5" value="PILOT" style="rounded=0;whiteSpace=wrap;html=1;" parent="1" vertex="1">
          <mxGeometry x="470" y="-50" width="120" height="60" as="geometry" />
        </mxCell>
        <mxCell id="WMnbsK8Wtpcpn8V5cacr-7" value="EMPLOYEE" style="rounded=0;whiteSpace=wrap;html=1;" parent="1" vertex="1">
          <mxGeometry x="890" y="-50" width="120" height="60" as="geometry" />
        </mxCell>
        <mxCell id="WMnbsK8Wtpcpn8V5cacr-8" value="MODEL" style="rounded=0;whiteSpace=wrap;html=1;" parent="1" vertex="1">
          <mxGeometry x="50" y="-50" width="120" height="60" as="geometry" />
        </mxCell>
        <mxCell id="WMnbsK8Wtpcpn8V5cacr-9" value="use" style="rhombus;whiteSpace=wrap;html=1;" parent="1" vertex="1">
          <mxGeometry x="280" y="-340" width="80" height="80" as="geometry" />
        </mxCell>
        <mxCell id="WMnbsK8Wtpcpn8V5cacr-10" value="rent" style="rhombus;whiteSpace=wrap;html=1;" parent="1" vertex="1">
          <mxGeometry x="700" y="-340" width="80" height="80" as="geometry" />
        </mxCell>
        <mxCell id="WMnbsK8Wtpcpn8V5cacr-11" value="contact" style="rhombus;whiteSpace=wrap;html=1;" parent="1" vertex="1">
          <mxGeometry x="490" y="-200" width="80" height="80" as="geometry" />
        </mxCell>
        <mxCell id="WMnbsK8Wtpcpn8V5cacr-12" value="has" style="rhombus;whiteSpace=wrap;html=1;" parent="1" vertex="1">
          <mxGeometry x="70" y="-200" width="80" height="80" as="geometry" />
        </mxCell>
        <mxCell id="WMnbsK8Wtpcpn8V5cacr-13" value="as" style="rhombus;whiteSpace=wrap;html=1;" parent="1" vertex="1">
          <mxGeometry x="700" y="-60" width="80" height="80" as="geometry" />
        </mxCell>
        <mxCell id="WMnbsK8Wtpcpn8V5cacr-15" value="" style="endArrow=none;html=1;rounded=0;entryX=1;entryY=0.5;entryDx=0;entryDy=0;exitX=0;exitY=0.5;exitDx=0;exitDy=0;" parent="1" source="WMnbsK8Wtpcpn8V5cacr-9" target="WMnbsK8Wtpcpn8V5cacr-2" edge="1">
          <mxGeometry width="50" height="50" relative="1" as="geometry">
            <mxPoint x="530" y="-130" as="sourcePoint" />
            <mxPoint x="580" y="-180" as="targetPoint" />
          </mxGeometry>
        </mxCell>
        <mxCell id="WMnbsK8Wtpcpn8V5cacr-16" value="" style="endArrow=none;html=1;rounded=0;exitX=1;exitY=0.5;exitDx=0;exitDy=0;entryX=0;entryY=0.5;entryDx=0;entryDy=0;" parent="1" source="WMnbsK8Wtpcpn8V5cacr-9" target="WMnbsK8Wtpcpn8V5cacr-3" edge="1">
          <mxGeometry width="50" height="50" relative="1" as="geometry">
            <mxPoint x="530" y="-130" as="sourcePoint" />
            <mxPoint x="580" y="-180" as="targetPoint" />
          </mxGeometry>
        </mxCell>
        <mxCell id="WMnbsK8Wtpcpn8V5cacr-17" value="" style="endArrow=none;html=1;rounded=0;entryX=1;entryY=0.5;entryDx=0;entryDy=0;exitX=0;exitY=0.5;exitDx=0;exitDy=0;" parent="1" source="WMnbsK8Wtpcpn8V5cacr-10" target="WMnbsK8Wtpcpn8V5cacr-3" edge="1">
          <mxGeometry width="50" height="50" relative="1" as="geometry">
            <mxPoint x="530" y="-130" as="sourcePoint" />
            <mxPoint x="580" y="-180" as="targetPoint" />
          </mxGeometry>
        </mxCell>
        <mxCell id="WMnbsK8Wtpcpn8V5cacr-18" value="" style="endArrow=none;html=1;rounded=0;entryX=1;entryY=0.5;entryDx=0;entryDy=0;exitX=0;exitY=0.5;exitDx=0;exitDy=0;" parent="1" source="WMnbsK8Wtpcpn8V5cacr-1" target="WMnbsK8Wtpcpn8V5cacr-10" edge="1">
          <mxGeometry width="50" height="50" relative="1" as="geometry">
            <mxPoint x="530" y="-130" as="sourcePoint" />
            <mxPoint x="580" y="-180" as="targetPoint" />
          </mxGeometry>
        </mxCell>
        <mxCell id="WMnbsK8Wtpcpn8V5cacr-19" value="" style="endArrow=none;html=1;rounded=0;entryX=0.5;entryY=1;entryDx=0;entryDy=0;" parent="1" target="WMnbsK8Wtpcpn8V5cacr-3" edge="1">
          <mxGeometry width="50" height="50" relative="1" as="geometry">
            <mxPoint x="530" y="-200" as="sourcePoint" />
            <mxPoint x="580" y="-180" as="targetPoint" />
          </mxGeometry>
        </mxCell>
        <mxCell id="WMnbsK8Wtpcpn8V5cacr-20" value="" style="endArrow=none;html=1;rounded=0;exitX=0.5;exitY=1;exitDx=0;exitDy=0;entryX=0.5;entryY=0;entryDx=0;entryDy=0;" parent="1" source="WMnbsK8Wtpcpn8V5cacr-11" target="WMnbsK8Wtpcpn8V5cacr-5" edge="1">
          <mxGeometry width="50" height="50" relative="1" as="geometry">
            <mxPoint x="530" y="-130" as="sourcePoint" />
            <mxPoint x="580" y="-180" as="targetPoint" />
          </mxGeometry>
        </mxCell>
        <mxCell id="WMnbsK8Wtpcpn8V5cacr-21" value="" style="endArrow=none;html=1;rounded=0;entryX=0.5;entryY=1;entryDx=0;entryDy=0;exitX=0.5;exitY=0;exitDx=0;exitDy=0;" parent="1" source="WMnbsK8Wtpcpn8V5cacr-12" target="WMnbsK8Wtpcpn8V5cacr-2" edge="1">
          <mxGeometry width="50" height="50" relative="1" as="geometry">
            <mxPoint x="530" y="-130" as="sourcePoint" />
            <mxPoint x="580" y="-180" as="targetPoint" />
          </mxGeometry>
        </mxCell>
        <mxCell id="WMnbsK8Wtpcpn8V5cacr-22" value="" style="endArrow=none;html=1;rounded=0;exitX=0.5;exitY=1;exitDx=0;exitDy=0;entryX=0.5;entryY=0;entryDx=0;entryDy=0;" parent="1" source="WMnbsK8Wtpcpn8V5cacr-12" target="WMnbsK8Wtpcpn8V5cacr-8" edge="1">
          <mxGeometry width="50" height="50" relative="1" as="geometry">
            <mxPoint x="530" y="-130" as="sourcePoint" />
            <mxPoint x="580" y="-180" as="targetPoint" />
          </mxGeometry>
        </mxCell>
        <mxCell id="WMnbsK8Wtpcpn8V5cacr-23" value="" style="endArrow=none;html=1;rounded=0;exitX=1;exitY=0.5;exitDx=0;exitDy=0;entryX=0;entryY=0.5;entryDx=0;entryDy=0;" parent="1" source="WMnbsK8Wtpcpn8V5cacr-13" target="WMnbsK8Wtpcpn8V5cacr-7" edge="1">
          <mxGeometry width="50" height="50" relative="1" as="geometry">
            <mxPoint x="530" y="-130" as="sourcePoint" />
            <mxPoint x="940" y="-120" as="targetPoint" />
          </mxGeometry>
        </mxCell>
        <mxCell id="WMnbsK8Wtpcpn8V5cacr-24" value="" style="endArrow=none;html=1;rounded=0;entryX=0;entryY=0.5;entryDx=0;entryDy=0;exitX=1;exitY=0.5;exitDx=0;exitDy=0;" parent="1" source="WMnbsK8Wtpcpn8V5cacr-5" target="WMnbsK8Wtpcpn8V5cacr-13" edge="1">
          <mxGeometry width="50" height="50" relative="1" as="geometry">
            <mxPoint x="530" y="-30" as="sourcePoint" />
            <mxPoint x="580" y="-80" as="targetPoint" />
          </mxGeometry>
        </mxCell>
        <mxCell id="WMnbsK8Wtpcpn8V5cacr-25" value="&lt;u&gt;AC_NUM&lt;/u&gt;" style="ellipse;whiteSpace=wrap;html=1;" parent="1" vertex="1">
          <mxGeometry x="25" y="-470" width="80" height="40" as="geometry" />
        </mxCell>
        <mxCell id="WMnbsK8Wtpcpn8V5cacr-26" value="AC_TTAF" style="ellipse;whiteSpace=wrap;html=1;" parent="1" vertex="1">
          <mxGeometry x="-80" y="-440" width="80" height="40" as="geometry" />
        </mxCell>
        <mxCell id="WMnbsK8Wtpcpn8V5cacr-27" value="AC_TTEL" style="ellipse;whiteSpace=wrap;html=1;" parent="1" vertex="1">
          <mxGeometry x="-90" y="-370" width="80" height="40" as="geometry" />
        </mxCell>
        <mxCell id="WMnbsK8Wtpcpn8V5cacr-28" value="AC_TTER" style="ellipse;whiteSpace=wrap;html=1;" parent="1" vertex="1">
          <mxGeometry x="-80" y="-300" width="80" height="40" as="geometry" />
        </mxCell>
        <mxCell id="WMnbsK8Wtpcpn8V5cacr-29" value="&lt;u&gt;MOD_CODE&lt;/u&gt;" style="ellipse;whiteSpace=wrap;html=1;" parent="1" vertex="1">
          <mxGeometry x="-140" y="-40" width="90" height="40" as="geometry" />
        </mxCell>
        <mxCell id="WMnbsK8Wtpcpn8V5cacr-30" value="MOD_NAME" style="ellipse;whiteSpace=wrap;html=1;" parent="1" vertex="1">
          <mxGeometry x="-140" y="40" width="90" height="40" as="geometry" />
        </mxCell>
        <mxCell id="WMnbsK8Wtpcpn8V5cacr-31" value="MOD_MANUFACTURER" style="ellipse;whiteSpace=wrap;html=1;" parent="1" vertex="1">
          <mxGeometry x="-175" y="120" width="160" height="40" as="geometry" />
        </mxCell>
        <mxCell id="WMnbsK8Wtpcpn8V5cacr-32" value="MOD_SEATS" style="ellipse;whiteSpace=wrap;html=1;" parent="1" vertex="1">
          <mxGeometry x="20" y="120" width="90" height="40" as="geometry" />
        </mxCell>
        <mxCell id="WMnbsK8Wtpcpn8V5cacr-33" value="MOD_CHG_MILE" style="ellipse;whiteSpace=wrap;html=1;" parent="1" vertex="1">
          <mxGeometry x="-155" y="-120" width="120" height="40" as="geometry" />
        </mxCell>
        <mxCell id="WMnbsK8Wtpcpn8V5cacr-34" value="&lt;u&gt;CHAR_NUM&lt;/u&gt;" style="ellipse;whiteSpace=wrap;html=1;" parent="1" vertex="1">
          <mxGeometry x="320" y="-480" width="90" height="40" as="geometry" />
        </mxCell>
        <mxCell id="WMnbsK8Wtpcpn8V5cacr-35" value="CHAR_DATE" style="ellipse;whiteSpace=wrap;html=1;" parent="1" vertex="1">
          <mxGeometry x="690" y="-410" width="90" height="40" as="geometry" />
        </mxCell>
        <mxCell id="WMnbsK8Wtpcpn8V5cacr-36" value="CHAR_DESTINATION" style="ellipse;whiteSpace=wrap;html=1;" parent="1" vertex="1">
          <mxGeometry x="630" y="-550" width="150" height="40" as="geometry" />
        </mxCell>
        <mxCell id="WMnbsK8Wtpcpn8V5cacr-37" value="CHAR_DISTANT" style="ellipse;whiteSpace=wrap;html=1;" parent="1" vertex="1">
          <mxGeometry x="480" y="-550" width="110" height="40" as="geometry" />
        </mxCell>
        <mxCell id="WMnbsK8Wtpcpn8V5cacr-38" value="CHAR_HOURS" style="ellipse;whiteSpace=wrap;html=1;" parent="1" vertex="1">
          <mxGeometry x="690" y="-490" width="90" height="40" as="geometry" />
        </mxCell>
        <mxCell id="WMnbsK8Wtpcpn8V5cacr-39" value="CHAR_FUEL" style="ellipse;whiteSpace=wrap;html=1;" parent="1" vertex="1">
          <mxGeometry x="320" y="-410" width="90" height="40" as="geometry" />
        </mxCell>
        <mxCell id="WMnbsK8Wtpcpn8V5cacr-40" value="CHAR_DISTANCE" style="ellipse;whiteSpace=wrap;html=1;" parent="1" vertex="1">
          <mxGeometry x="320" y="-550" width="130" height="40" as="geometry" />
        </mxCell>
        <mxCell id="WMnbsK8Wtpcpn8V5cacr-44" value="&lt;u&gt;EMP_NUM&lt;/u&gt;" style="ellipse;whiteSpace=wrap;html=1;" parent="1" vertex="1">
          <mxGeometry x="1080" y="-40" width="90" height="40" as="geometry" />
        </mxCell>
        <mxCell id="WMnbsK8Wtpcpn8V5cacr-45" value="EMP_TITLE" style="ellipse;whiteSpace=wrap;html=1;" parent="1" vertex="1">
          <mxGeometry x="1080" y="30" width="90" height="40" as="geometry" />
        </mxCell>
        <mxCell id="WMnbsK8Wtpcpn8V5cacr-46" value="EMP_FNAME" style="ellipse;whiteSpace=wrap;html=1;" parent="1" vertex="1">
          <mxGeometry x="910" y="170" width="90" height="40" as="geometry" />
        </mxCell>
        <mxCell id="WMnbsK8Wtpcpn8V5cacr-47" value="EMP_LNAME" style="ellipse;whiteSpace=wrap;html=1;" parent="1" vertex="1">
          <mxGeometry x="780" y="30" width="90" height="40" as="geometry" />
        </mxCell>
        <mxCell id="WMnbsK8Wtpcpn8V5cacr-48" value="EMP_ADDRESS" style="ellipse;whiteSpace=wrap;html=1;" parent="1" vertex="1">
          <mxGeometry x="770" y="120" width="110" height="40" as="geometry" />
        </mxCell>
        <mxCell id="WMnbsK8Wtpcpn8V5cacr-49" value="EMP_DOB" style="ellipse;whiteSpace=wrap;html=1;" parent="1" vertex="1">
          <mxGeometry x="1080" y="100" width="90" height="40" as="geometry" />
        </mxCell>
        <mxCell id="WMnbsK8Wtpcpn8V5cacr-50" value="EMP_HIRE_DATE" style="ellipse;whiteSpace=wrap;html=1;" parent="1" vertex="1">
          <mxGeometry x="1065" y="170" width="120" height="40" as="geometry" />
        </mxCell>
        <mxCell id="WMnbsK8Wtpcpn8V5cacr-51" value="CUS_FNAME" style="ellipse;whiteSpace=wrap;html=1;" parent="1" vertex="1">
          <mxGeometry x="905" y="-450" width="90" height="40" as="geometry" />
        </mxCell>
        <mxCell id="WMnbsK8Wtpcpn8V5cacr-52" value="CUS_LNAME" style="ellipse;whiteSpace=wrap;html=1;" parent="1" vertex="1">
          <mxGeometry x="1125" y="-240" width="90" height="40" as="geometry" />
        </mxCell>
        <mxCell id="WMnbsK8Wtpcpn8V5cacr-53" value="CUS_AREACODE" style="ellipse;whiteSpace=wrap;html=1;" parent="1" vertex="1">
          <mxGeometry x="1120" y="-390" width="130" height="40" as="geometry" />
        </mxCell>
        <mxCell id="WMnbsK8Wtpcpn8V5cacr-54" value="CUS_BALANCE" style="ellipse;whiteSpace=wrap;html=1;" parent="1" vertex="1">
          <mxGeometry x="905" y="-220" width="105" height="40" as="geometry" />
        </mxCell>
        <mxCell id="WMnbsK8Wtpcpn8V5cacr-55" value="CUS_PHONE" style="ellipse;whiteSpace=wrap;html=1;" parent="1" vertex="1">
          <mxGeometry x="1120" y="-320" width="100" height="40" as="geometry" />
        </mxCell>
        <mxCell id="WMnbsK8Wtpcpn8V5cacr-56" value="&lt;u&gt;CUS_CODE&lt;/u&gt;" style="ellipse;whiteSpace=wrap;html=1;" parent="1" vertex="1">
          <mxGeometry x="1040" y="-450" width="90" height="40" as="geometry" />
        </mxCell>
        <mxCell id="WMnbsK8Wtpcpn8V5cacr-57" value="&lt;u&gt;PIL_NUM&lt;/u&gt;" style="ellipse;whiteSpace=wrap;html=1;" parent="1" vertex="1">
          <mxGeometry x="315" y="-110" width="90" height="40" as="geometry" />
        </mxCell>
        <mxCell id="WMnbsK8Wtpcpn8V5cacr-59" value="PIL_LICENSE" style="ellipse;whiteSpace=wrap;html=1;" parent="1" vertex="1">
          <mxGeometry x="315" y="-40" width="90" height="40" as="geometry" />
        </mxCell>
        <mxCell id="WMnbsK8Wtpcpn8V5cacr-60" value="PIL_RATINGS" style="ellipse;whiteSpace=wrap;html=1;" parent="1" vertex="1">
          <mxGeometry x="315" y="30" width="90" height="40" as="geometry" />
        </mxCell>
        <mxCell id="WMnbsK8Wtpcpn8V5cacr-61" value="PIL_MED_TYPE" style="ellipse;whiteSpace=wrap;html=1;" parent="1" vertex="1">
          <mxGeometry x="315" y="180" width="110" height="40" as="geometry" />
        </mxCell>
        <mxCell id="WMnbsK8Wtpcpn8V5cacr-62" value="PIL_SKILL_DATE" style="ellipse;whiteSpace=wrap;html=1;" parent="1" vertex="1">
          <mxGeometry x="300" y="110" width="120" height="40" as="geometry" />
        </mxCell>
        <mxCell id="WMnbsK8Wtpcpn8V5cacr-63" value="PIL_MED_DATE" style="ellipse;whiteSpace=wrap;html=1;" parent="1" vertex="1">
          <mxGeometry x="450" y="180" width="110" height="40" as="geometry" />
        </mxCell>
        <mxCell id="WMnbsK8Wtpcpn8V5cacr-64" value="COPIL_PIL_NUM" style="ellipse;whiteSpace=wrap;html=1;" parent="1" vertex="1">
          <mxGeometry x="600" y="-180" width="130" height="40" as="geometry" />
        </mxCell>
        <mxCell id="WMnbsK8Wtpcpn8V5cacr-66" value="" style="endArrow=none;html=1;rounded=0;exitX=1;exitY=0.5;exitDx=0;exitDy=0;entryX=0;entryY=0.5;entryDx=0;entryDy=0;" parent="1" source="WMnbsK8Wtpcpn8V5cacr-28" target="WMnbsK8Wtpcpn8V5cacr-2" edge="1">
          <mxGeometry width="50" height="50" relative="1" as="geometry">
            <mxPoint x="70" y="-300" as="sourcePoint" />
            <mxPoint x="120" y="-350" as="targetPoint" />
          </mxGeometry>
        </mxCell>
        <mxCell id="WMnbsK8Wtpcpn8V5cacr-67" value="" style="endArrow=none;html=1;rounded=0;entryX=1;entryY=0.5;entryDx=0;entryDy=0;exitX=0;exitY=0;exitDx=0;exitDy=0;" parent="1" source="WMnbsK8Wtpcpn8V5cacr-2" target="WMnbsK8Wtpcpn8V5cacr-27" edge="1">
          <mxGeometry width="50" height="50" relative="1" as="geometry">
            <mxPoint x="70" y="-300" as="sourcePoint" />
            <mxPoint x="120" y="-350" as="targetPoint" />
          </mxGeometry>
        </mxCell>
        <mxCell id="WMnbsK8Wtpcpn8V5cacr-68" value="" style="endArrow=none;html=1;rounded=0;entryX=1;entryY=0.5;entryDx=0;entryDy=0;exitX=0.25;exitY=0;exitDx=0;exitDy=0;" parent="1" source="WMnbsK8Wtpcpn8V5cacr-2" target="WMnbsK8Wtpcpn8V5cacr-26" edge="1">
          <mxGeometry width="50" height="50" relative="1" as="geometry">
            <mxPoint x="70" y="-300" as="sourcePoint" />
            <mxPoint x="120" y="-350" as="targetPoint" />
          </mxGeometry>
        </mxCell>
        <mxCell id="WMnbsK8Wtpcpn8V5cacr-69" value="" style="endArrow=none;html=1;rounded=0;entryX=0.5;entryY=1;entryDx=0;entryDy=0;exitX=0.5;exitY=0;exitDx=0;exitDy=0;" parent="1" source="WMnbsK8Wtpcpn8V5cacr-2" target="WMnbsK8Wtpcpn8V5cacr-25" edge="1">
          <mxGeometry width="50" height="50" relative="1" as="geometry">
            <mxPoint x="70" y="-300" as="sourcePoint" />
            <mxPoint x="120" y="-350" as="targetPoint" />
          </mxGeometry>
        </mxCell>
        <mxCell id="WMnbsK8Wtpcpn8V5cacr-70" value="" style="endArrow=none;html=1;rounded=0;exitX=0.5;exitY=1;exitDx=0;exitDy=0;entryX=0;entryY=0;entryDx=0;entryDy=0;" parent="1" source="WMnbsK8Wtpcpn8V5cacr-39" target="WMnbsK8Wtpcpn8V5cacr-3" edge="1">
          <mxGeometry width="50" height="50" relative="1" as="geometry">
            <mxPoint x="490" y="-380" as="sourcePoint" />
            <mxPoint x="540" y="-430" as="targetPoint" />
          </mxGeometry>
        </mxCell>
        <mxCell id="WMnbsK8Wtpcpn8V5cacr-71" value="" style="endArrow=none;html=1;rounded=0;entryX=1;entryY=1;entryDx=0;entryDy=0;exitX=0.25;exitY=0;exitDx=0;exitDy=0;" parent="1" source="WMnbsK8Wtpcpn8V5cacr-3" target="WMnbsK8Wtpcpn8V5cacr-34" edge="1">
          <mxGeometry width="50" height="50" relative="1" as="geometry">
            <mxPoint x="490" y="-380" as="sourcePoint" />
            <mxPoint x="540" y="-430" as="targetPoint" />
          </mxGeometry>
        </mxCell>
        <mxCell id="WMnbsK8Wtpcpn8V5cacr-72" value="" style="endArrow=none;html=1;rounded=0;entryX=1;entryY=1;entryDx=0;entryDy=0;exitX=0.5;exitY=0;exitDx=0;exitDy=0;" parent="1" source="WMnbsK8Wtpcpn8V5cacr-3" target="WMnbsK8Wtpcpn8V5cacr-40" edge="1">
          <mxGeometry width="50" height="50" relative="1" as="geometry">
            <mxPoint x="490" y="-380" as="sourcePoint" />
            <mxPoint x="540" y="-430" as="targetPoint" />
          </mxGeometry>
        </mxCell>
        <mxCell id="WMnbsK8Wtpcpn8V5cacr-73" value="" style="endArrow=none;html=1;rounded=0;entryX=0.5;entryY=1;entryDx=0;entryDy=0;exitX=0.678;exitY=-0.047;exitDx=0;exitDy=0;exitPerimeter=0;" parent="1" source="WMnbsK8Wtpcpn8V5cacr-3" target="WMnbsK8Wtpcpn8V5cacr-37" edge="1">
          <mxGeometry width="50" height="50" relative="1" as="geometry">
            <mxPoint x="490" y="-380" as="sourcePoint" />
            <mxPoint x="540" y="-430" as="targetPoint" />
          </mxGeometry>
        </mxCell>
        <mxCell id="WMnbsK8Wtpcpn8V5cacr-74" value="" style="endArrow=none;html=1;rounded=0;entryX=0;entryY=1;entryDx=0;entryDy=0;exitX=0.75;exitY=0;exitDx=0;exitDy=0;" parent="1" source="WMnbsK8Wtpcpn8V5cacr-3" target="WMnbsK8Wtpcpn8V5cacr-36" edge="1">
          <mxGeometry width="50" height="50" relative="1" as="geometry">
            <mxPoint x="490" y="-380" as="sourcePoint" />
            <mxPoint x="540" y="-430" as="targetPoint" />
          </mxGeometry>
        </mxCell>
        <mxCell id="WMnbsK8Wtpcpn8V5cacr-75" value="" style="endArrow=none;html=1;rounded=0;entryX=0;entryY=1;entryDx=0;entryDy=0;exitX=1;exitY=0;exitDx=0;exitDy=0;" parent="1" source="WMnbsK8Wtpcpn8V5cacr-3" target="WMnbsK8Wtpcpn8V5cacr-38" edge="1">
          <mxGeometry width="50" height="50" relative="1" as="geometry">
            <mxPoint x="490" y="-380" as="sourcePoint" />
            <mxPoint x="540" y="-430" as="targetPoint" />
          </mxGeometry>
        </mxCell>
        <mxCell id="WMnbsK8Wtpcpn8V5cacr-76" value="" style="endArrow=none;html=1;rounded=0;entryX=0;entryY=1;entryDx=0;entryDy=0;exitX=1;exitY=0.25;exitDx=0;exitDy=0;" parent="1" source="WMnbsK8Wtpcpn8V5cacr-3" target="WMnbsK8Wtpcpn8V5cacr-35" edge="1">
          <mxGeometry width="50" height="50" relative="1" as="geometry">
            <mxPoint x="490" y="-380" as="sourcePoint" />
            <mxPoint x="540" y="-430" as="targetPoint" />
          </mxGeometry>
        </mxCell>
        <mxCell id="WMnbsK8Wtpcpn8V5cacr-77" value="" style="endArrow=none;html=1;rounded=0;entryX=0.25;entryY=0;entryDx=0;entryDy=0;exitX=1;exitY=0.5;exitDx=0;exitDy=0;" parent="1" source="WMnbsK8Wtpcpn8V5cacr-33" target="WMnbsK8Wtpcpn8V5cacr-8" edge="1">
          <mxGeometry width="50" height="50" relative="1" as="geometry">
            <mxPoint x="360" y="-30" as="sourcePoint" />
            <mxPoint x="410" y="-80" as="targetPoint" />
          </mxGeometry>
        </mxCell>
        <mxCell id="WMnbsK8Wtpcpn8V5cacr-78" value="" style="endArrow=none;html=1;rounded=0;entryX=1;entryY=0.5;entryDx=0;entryDy=0;exitX=0;exitY=0;exitDx=0;exitDy=0;" parent="1" source="WMnbsK8Wtpcpn8V5cacr-8" target="WMnbsK8Wtpcpn8V5cacr-29" edge="1">
          <mxGeometry width="50" height="50" relative="1" as="geometry">
            <mxPoint x="360" y="-30" as="sourcePoint" />
            <mxPoint x="410" y="-80" as="targetPoint" />
          </mxGeometry>
        </mxCell>
        <mxCell id="WMnbsK8Wtpcpn8V5cacr-79" value="" style="endArrow=none;html=1;rounded=0;entryX=1;entryY=0.5;entryDx=0;entryDy=0;exitX=0;exitY=0.25;exitDx=0;exitDy=0;" parent="1" source="WMnbsK8Wtpcpn8V5cacr-8" target="WMnbsK8Wtpcpn8V5cacr-30" edge="1">
          <mxGeometry width="50" height="50" relative="1" as="geometry">
            <mxPoint x="360" y="-30" as="sourcePoint" />
            <mxPoint x="410" y="-80" as="targetPoint" />
          </mxGeometry>
        </mxCell>
        <mxCell id="WMnbsK8Wtpcpn8V5cacr-80" value="" style="endArrow=none;html=1;rounded=0;exitX=1;exitY=0;exitDx=0;exitDy=0;entryX=0;entryY=0.75;entryDx=0;entryDy=0;" parent="1" source="WMnbsK8Wtpcpn8V5cacr-31" target="WMnbsK8Wtpcpn8V5cacr-8" edge="1">
          <mxGeometry width="50" height="50" relative="1" as="geometry">
            <mxPoint x="360" y="-30" as="sourcePoint" />
            <mxPoint x="410" y="-80" as="targetPoint" />
          </mxGeometry>
        </mxCell>
        <mxCell id="WMnbsK8Wtpcpn8V5cacr-81" value="" style="endArrow=none;html=1;rounded=0;exitX=0.5;exitY=0;exitDx=0;exitDy=0;entryX=0.25;entryY=1;entryDx=0;entryDy=0;" parent="1" source="WMnbsK8Wtpcpn8V5cacr-32" target="WMnbsK8Wtpcpn8V5cacr-8" edge="1">
          <mxGeometry width="50" height="50" relative="1" as="geometry">
            <mxPoint x="360" y="-30" as="sourcePoint" />
            <mxPoint x="410" y="-80" as="targetPoint" />
          </mxGeometry>
        </mxCell>
        <mxCell id="WMnbsK8Wtpcpn8V5cacr-82" value="" style="endArrow=none;html=1;rounded=0;entryX=0.5;entryY=1;entryDx=0;entryDy=0;exitX=0.25;exitY=0;exitDx=0;exitDy=0;" parent="1" source="WMnbsK8Wtpcpn8V5cacr-1" target="WMnbsK8Wtpcpn8V5cacr-51" edge="1">
          <mxGeometry width="50" height="50" relative="1" as="geometry">
            <mxPoint x="1130" y="-320" as="sourcePoint" />
            <mxPoint x="1180" y="-370" as="targetPoint" />
          </mxGeometry>
        </mxCell>
        <mxCell id="WMnbsK8Wtpcpn8V5cacr-83" value="" style="endArrow=none;html=1;rounded=0;entryX=0;entryY=0.5;entryDx=0;entryDy=0;exitX=0.5;exitY=0;exitDx=0;exitDy=0;" parent="1" source="WMnbsK8Wtpcpn8V5cacr-1" target="WMnbsK8Wtpcpn8V5cacr-56" edge="1">
          <mxGeometry width="50" height="50" relative="1" as="geometry">
            <mxPoint x="1130" y="-320" as="sourcePoint" />
            <mxPoint x="1180" y="-370" as="targetPoint" />
          </mxGeometry>
        </mxCell>
        <mxCell id="WMnbsK8Wtpcpn8V5cacr-84" value="" style="endArrow=none;html=1;rounded=0;entryX=0;entryY=0.5;entryDx=0;entryDy=0;exitX=0.75;exitY=0;exitDx=0;exitDy=0;" parent="1" source="WMnbsK8Wtpcpn8V5cacr-1" target="WMnbsK8Wtpcpn8V5cacr-53" edge="1">
          <mxGeometry width="50" height="50" relative="1" as="geometry">
            <mxPoint x="1130" y="-320" as="sourcePoint" />
            <mxPoint x="1180" y="-370" as="targetPoint" />
          </mxGeometry>
        </mxCell>
        <mxCell id="WMnbsK8Wtpcpn8V5cacr-85" value="" style="endArrow=none;html=1;rounded=0;entryX=0;entryY=0.5;entryDx=0;entryDy=0;exitX=1;exitY=0.25;exitDx=0;exitDy=0;" parent="1" source="WMnbsK8Wtpcpn8V5cacr-1" target="WMnbsK8Wtpcpn8V5cacr-55" edge="1">
          <mxGeometry width="50" height="50" relative="1" as="geometry">
            <mxPoint x="1130" y="-320" as="sourcePoint" />
            <mxPoint x="1180" y="-370" as="targetPoint" />
          </mxGeometry>
        </mxCell>
        <mxCell id="WMnbsK8Wtpcpn8V5cacr-86" value="" style="endArrow=none;html=1;rounded=0;entryX=0.5;entryY=0;entryDx=0;entryDy=0;exitX=0.5;exitY=1;exitDx=0;exitDy=0;" parent="1" source="WMnbsK8Wtpcpn8V5cacr-1" target="WMnbsK8Wtpcpn8V5cacr-54" edge="1">
          <mxGeometry width="50" height="50" relative="1" as="geometry">
            <mxPoint x="1130" y="-200" as="sourcePoint" />
            <mxPoint x="1180" y="-250" as="targetPoint" />
          </mxGeometry>
        </mxCell>
        <mxCell id="WMnbsK8Wtpcpn8V5cacr-87" value="" style="endArrow=none;html=1;rounded=0;entryX=0;entryY=0.5;entryDx=0;entryDy=0;exitX=1;exitY=1;exitDx=0;exitDy=0;" parent="1" source="WMnbsK8Wtpcpn8V5cacr-1" target="WMnbsK8Wtpcpn8V5cacr-52" edge="1">
          <mxGeometry width="50" height="50" relative="1" as="geometry">
            <mxPoint x="1130" y="-200" as="sourcePoint" />
            <mxPoint x="1180" y="-250" as="targetPoint" />
          </mxGeometry>
        </mxCell>
        <mxCell id="WMnbsK8Wtpcpn8V5cacr-88" value="" style="endArrow=none;html=1;rounded=0;entryX=0;entryY=0.5;entryDx=0;entryDy=0;exitX=1;exitY=0.5;exitDx=0;exitDy=0;" parent="1" source="WMnbsK8Wtpcpn8V5cacr-7" target="WMnbsK8Wtpcpn8V5cacr-44" edge="1">
          <mxGeometry width="50" height="50" relative="1" as="geometry">
            <mxPoint x="1130" y="150" as="sourcePoint" />
            <mxPoint x="1180" y="100" as="targetPoint" />
          </mxGeometry>
        </mxCell>
        <mxCell id="WMnbsK8Wtpcpn8V5cacr-89" value="" style="endArrow=none;html=1;rounded=0;entryX=0;entryY=0.5;entryDx=0;entryDy=0;exitX=1;exitY=0.75;exitDx=0;exitDy=0;" parent="1" source="WMnbsK8Wtpcpn8V5cacr-7" target="WMnbsK8Wtpcpn8V5cacr-45" edge="1">
          <mxGeometry width="50" height="50" relative="1" as="geometry">
            <mxPoint x="1130" y="150" as="sourcePoint" />
            <mxPoint x="1180" y="100" as="targetPoint" />
          </mxGeometry>
        </mxCell>
        <mxCell id="WMnbsK8Wtpcpn8V5cacr-91" value="" style="endArrow=none;html=1;rounded=0;entryX=0;entryY=0;entryDx=0;entryDy=0;exitX=1;exitY=1;exitDx=0;exitDy=0;" parent="1" source="WMnbsK8Wtpcpn8V5cacr-7" target="WMnbsK8Wtpcpn8V5cacr-49" edge="1">
          <mxGeometry width="50" height="50" relative="1" as="geometry">
            <mxPoint x="1130" y="150" as="sourcePoint" />
            <mxPoint x="1180" y="100" as="targetPoint" />
          </mxGeometry>
        </mxCell>
        <mxCell id="WMnbsK8Wtpcpn8V5cacr-92" value="" style="endArrow=none;html=1;rounded=0;exitX=0;exitY=0;exitDx=0;exitDy=0;entryX=0.75;entryY=1;entryDx=0;entryDy=0;" parent="1" source="WMnbsK8Wtpcpn8V5cacr-50" target="WMnbsK8Wtpcpn8V5cacr-7" edge="1">
          <mxGeometry width="50" height="50" relative="1" as="geometry">
            <mxPoint x="1130" y="150" as="sourcePoint" />
            <mxPoint x="1180" y="100" as="targetPoint" />
          </mxGeometry>
        </mxCell>
        <mxCell id="WMnbsK8Wtpcpn8V5cacr-93" value="" style="endArrow=none;html=1;rounded=0;exitX=0.5;exitY=0;exitDx=0;exitDy=0;entryX=0.5;entryY=1;entryDx=0;entryDy=0;" parent="1" source="WMnbsK8Wtpcpn8V5cacr-46" target="WMnbsK8Wtpcpn8V5cacr-7" edge="1">
          <mxGeometry width="50" height="50" relative="1" as="geometry">
            <mxPoint x="1130" y="150" as="sourcePoint" />
            <mxPoint x="1180" y="100" as="targetPoint" />
          </mxGeometry>
        </mxCell>
        <mxCell id="WMnbsK8Wtpcpn8V5cacr-94" value="" style="endArrow=none;html=1;rounded=0;entryX=0;entryY=1;entryDx=0;entryDy=0;exitX=0.5;exitY=0;exitDx=0;exitDy=0;" parent="1" source="WMnbsK8Wtpcpn8V5cacr-47" target="WMnbsK8Wtpcpn8V5cacr-7" edge="1">
          <mxGeometry width="50" height="50" relative="1" as="geometry">
            <mxPoint x="1130" y="150" as="sourcePoint" />
            <mxPoint x="1180" y="100" as="targetPoint" />
          </mxGeometry>
        </mxCell>
        <mxCell id="WMnbsK8Wtpcpn8V5cacr-96" value="" style="endArrow=none;html=1;rounded=0;entryX=0.25;entryY=1;entryDx=0;entryDy=0;exitX=1;exitY=0;exitDx=0;exitDy=0;" parent="1" source="WMnbsK8Wtpcpn8V5cacr-48" target="WMnbsK8Wtpcpn8V5cacr-7" edge="1">
          <mxGeometry width="50" height="50" relative="1" as="geometry">
            <mxPoint x="1130" y="150" as="sourcePoint" />
            <mxPoint x="1180" y="100" as="targetPoint" />
          </mxGeometry>
        </mxCell>
        <mxCell id="WMnbsK8Wtpcpn8V5cacr-98" value="" style="endArrow=none;html=1;rounded=0;exitX=0;exitY=0;exitDx=0;exitDy=0;entryX=1;entryY=0.5;entryDx=0;entryDy=0;" parent="1" source="WMnbsK8Wtpcpn8V5cacr-5" target="WMnbsK8Wtpcpn8V5cacr-57" edge="1">
          <mxGeometry width="50" height="50" relative="1" as="geometry">
            <mxPoint x="550" y="-80" as="sourcePoint" />
            <mxPoint x="600" y="-130" as="targetPoint" />
          </mxGeometry>
        </mxCell>
        <mxCell id="WMnbsK8Wtpcpn8V5cacr-99" value="" style="endArrow=none;html=1;rounded=0;exitX=0;exitY=0.5;exitDx=0;exitDy=0;entryX=1;entryY=0.5;entryDx=0;entryDy=0;" parent="1" source="WMnbsK8Wtpcpn8V5cacr-5" target="WMnbsK8Wtpcpn8V5cacr-59" edge="1">
          <mxGeometry width="50" height="50" relative="1" as="geometry">
            <mxPoint x="550" y="-80" as="sourcePoint" />
            <mxPoint x="600" y="-130" as="targetPoint" />
          </mxGeometry>
        </mxCell>
        <mxCell id="WMnbsK8Wtpcpn8V5cacr-100" value="" style="endArrow=none;html=1;rounded=0;exitX=0;exitY=0.75;exitDx=0;exitDy=0;entryX=1;entryY=0.5;entryDx=0;entryDy=0;" parent="1" source="WMnbsK8Wtpcpn8V5cacr-5" target="WMnbsK8Wtpcpn8V5cacr-60" edge="1">
          <mxGeometry width="50" height="50" relative="1" as="geometry">
            <mxPoint x="550" y="-80" as="sourcePoint" />
            <mxPoint x="600" y="-130" as="targetPoint" />
          </mxGeometry>
        </mxCell>
        <mxCell id="WMnbsK8Wtpcpn8V5cacr-101" value="" style="endArrow=none;html=1;rounded=0;exitX=0.25;exitY=1;exitDx=0;exitDy=0;entryX=1;entryY=0;entryDx=0;entryDy=0;" parent="1" source="WMnbsK8Wtpcpn8V5cacr-5" target="WMnbsK8Wtpcpn8V5cacr-62" edge="1">
          <mxGeometry width="50" height="50" relative="1" as="geometry">
            <mxPoint x="550" y="-80" as="sourcePoint" />
            <mxPoint x="600" y="-130" as="targetPoint" />
          </mxGeometry>
        </mxCell>
        <mxCell id="WMnbsK8Wtpcpn8V5cacr-102" value="" style="endArrow=none;html=1;rounded=0;exitX=0.5;exitY=1;exitDx=0;exitDy=0;entryX=1;entryY=0;entryDx=0;entryDy=0;" parent="1" source="WMnbsK8Wtpcpn8V5cacr-5" target="WMnbsK8Wtpcpn8V5cacr-61" edge="1">
          <mxGeometry width="50" height="50" relative="1" as="geometry">
            <mxPoint x="550" y="-80" as="sourcePoint" />
            <mxPoint x="600" y="-130" as="targetPoint" />
          </mxGeometry>
        </mxCell>
        <mxCell id="WMnbsK8Wtpcpn8V5cacr-103" value="" style="endArrow=none;html=1;rounded=0;exitX=0.5;exitY=0;exitDx=0;exitDy=0;entryX=0.75;entryY=1;entryDx=0;entryDy=0;" parent="1" source="WMnbsK8Wtpcpn8V5cacr-63" target="WMnbsK8Wtpcpn8V5cacr-5" edge="1">
          <mxGeometry width="50" height="50" relative="1" as="geometry">
            <mxPoint x="550" y="-80" as="sourcePoint" />
            <mxPoint x="600" y="-130" as="targetPoint" />
          </mxGeometry>
        </mxCell>
        <mxCell id="_E7_CDCtTQl_ckGTLSgN-1" value="1" style="text;html=1;strokeColor=none;fillColor=none;align=center;verticalAlign=middle;whiteSpace=wrap;rounded=0;" parent="1" vertex="1">
          <mxGeometry x="845" y="-300" width="60" height="30" as="geometry" />
        </mxCell>
        <mxCell id="_E7_CDCtTQl_ckGTLSgN-2" value="M" style="text;html=1;strokeColor=none;fillColor=none;align=center;verticalAlign=middle;whiteSpace=wrap;rounded=0;" parent="1" vertex="1">
          <mxGeometry x="580" y="-300" width="60" height="30" as="geometry" />
        </mxCell>
        <mxCell id="_E7_CDCtTQl_ckGTLSgN-3" value="M" style="text;html=1;strokeColor=none;fillColor=none;align=center;verticalAlign=middle;whiteSpace=wrap;rounded=0;" parent="1" vertex="1">
          <mxGeometry x="425" y="-330" width="60" height="30" as="geometry" />
        </mxCell>
        <mxCell id="_E7_CDCtTQl_ckGTLSgN-4" value="1" style="text;html=1;strokeColor=none;fillColor=none;align=center;verticalAlign=middle;whiteSpace=wrap;rounded=0;" parent="1" vertex="1">
          <mxGeometry x="150" y="-330" width="60" height="30" as="geometry" />
        </mxCell>
        <mxCell id="_E7_CDCtTQl_ckGTLSgN-5" value="M" style="text;html=1;strokeColor=none;fillColor=none;align=center;verticalAlign=middle;whiteSpace=wrap;rounded=0;" parent="1" vertex="1">
          <mxGeometry x="70" y="-270" width="60" height="30" as="geometry" />
        </mxCell>
        <mxCell id="_E7_CDCtTQl_ckGTLSgN-6" value="1" style="text;html=1;strokeColor=none;fillColor=none;align=center;verticalAlign=middle;whiteSpace=wrap;rounded=0;" parent="1" vertex="1">
          <mxGeometry x="70" y="-80" width="60" height="30" as="geometry" />
        </mxCell>
        <mxCell id="_E7_CDCtTQl_ckGTLSgN-7" value="" style="endArrow=none;html=1;rounded=0;exitX=1;exitY=0.5;exitDx=0;exitDy=0;entryX=0;entryY=0.5;entryDx=0;entryDy=0;" parent="1" source="WMnbsK8Wtpcpn8V5cacr-11" target="WMnbsK8Wtpcpn8V5cacr-64" edge="1">
          <mxGeometry width="50" height="50" relative="1" as="geometry">
            <mxPoint x="700" y="-80" as="sourcePoint" />
            <mxPoint x="750" y="-130" as="targetPoint" />
          </mxGeometry>
        </mxCell>
        <mxCell id="_E7_CDCtTQl_ckGTLSgN-8" value="1" style="text;html=1;strokeColor=none;fillColor=none;align=center;verticalAlign=middle;whiteSpace=wrap;rounded=0;" parent="1" vertex="1">
          <mxGeometry x="490" y="-80" width="60" height="30" as="geometry" />
        </mxCell>
        <mxCell id="_E7_CDCtTQl_ckGTLSgN-9" value="M" style="text;html=1;strokeColor=none;fillColor=none;align=center;verticalAlign=middle;whiteSpace=wrap;rounded=0;" parent="1" vertex="1">
          <mxGeometry x="490" y="-270" width="60" height="30" as="geometry" />
        </mxCell>
        <mxCell id="_E7_CDCtTQl_ckGTLSgN-11" value="1" style="text;html=1;strokeColor=none;fillColor=none;align=center;verticalAlign=middle;whiteSpace=wrap;rounded=0;" parent="1" vertex="1">
          <mxGeometry x="580" y="-20" width="60" height="30" as="geometry" />
        </mxCell>
        <mxCell id="_E7_CDCtTQl_ckGTLSgN-12" value="1" style="text;html=1;strokeColor=none;fillColor=none;align=center;verticalAlign=middle;whiteSpace=wrap;rounded=0;" parent="1" vertex="1">
          <mxGeometry x="845" y="-20" width="60" height="30" as="geometry" />
        </mxCell>
      </root>
    </mxGraphModel>
  </diagram>
</mxfile>
